<?xml version="1.0" encoding="utf-8"?>
<!-- Generator: Adobe Illustrator 21.1.0, SVG Export Plug-In . SVG Version: 6.00 Build 0)  -->
<svg version="1.1" id="Layer_1" xmlns="http://www.w3.org/2000/svg" xmlns:xlink="http://www.w3.org/1999/xlink" x="0px" y="0px"
	 viewBox="0 0 293.4 60.9" style="enable-background:new 0 0 293.4 60.9;" xml:space="preserve">
<style type="text/css">
	.st0{fill:#403B34;}
	.st1{fill:#FFFFFF;}
	.st2{fill:#FACE54;}
</style>
<g>
	<path class="st0" d="M66,29c0.8-0.6,3.2-2.5,6.9-2.5c6.4,0,9.8,4.7,9.8,12.7c0,9-4.7,14.3-13.9,14.3c-5.3,0-10-1.1-10-1.1V20.8
		l-3.6-1V16L66,15.6V29z M66,47.3c0,0,1.1,0.4,3.6,0.4c4.2,0,5.7-3.2,5.7-8c0-4.8-1.3-7.4-4.7-7.4c-2.9,0-4.6,2.2-4.6,2.2V47.3z"/>
	<path class="st0" d="M96.9,30.2c0,0,3.5-3.8,6.7-3.8c2.6,0,4.5,0.9,4.5,0.9l-0.4,9.2h-4.3l-0.7-4.1c-2.8,0-5.2,2.7-5.2,2.7v12.7
		l4.8,1.2v3.8H86.3V49l3.8-1.2V32.2L86.3,31v-3.8l10.1-0.2L96.9,30.2z"/>
	<path class="st0" d="M117.4,41.5c0.3,3.8,2.5,6.1,5.8,6.1c4,0,8.1-2.3,8.1-2.3l2.1,4c0,0-4.8,4-10.9,4c-8.3,0-12.5-4.8-12.5-13
		c0-8.4,4.8-13.9,12.8-13.9c7.2,0,10.9,4.4,10.9,11.3c0,1.8-0.3,3.6-0.3,3.6L117.4,41.5z M117.5,37h8.7c0-2.7-1.2-4.8-3.9-4.8
		C119.6,32.2,117.9,34.2,117.5,37z"/>
	<path class="st0" d="M164.8,31v-3.8l12.3-0.2V31l-2.5,0.6l-6.4,21.3h-7.3L157,40.6l-0.9-3.7l-1.2,5.2l-3.5,10.8h-7.3l-6.5-21.2
		l-2.1-0.7v-3.8l12.6-0.2V31l-3,0.6l3.2,13.5l5.1-17.3l6.3-1.1l5.2,18.4l2.8-13.3L164.8,31z"/>
	<path class="st0" d="M182.5,44v-11h-4.5v-4.7l4.5-0.6V21l7.2-1.3v7.9h6.7v5.3h-6.7v10.6c0,3.1,0.5,4.3,2.5,4.3
		c1.3,0,3.2-0.8,3.8-1.1l1.7,3.6c-2.4,1.7-5,3-8.2,3C184.1,53.3,182.5,49.5,182.5,44z"/>
	<path class="st0" d="M225,39.4c0,8.6-5,13.9-12.8,13.9c-7.8,0-12.2-4.1-12.2-13.2c0-8.6,5.1-13.7,13-13.7
		C220.7,26.4,225,31.1,225,39.4z M207.4,39.9c0,5.3,1.5,7.7,5,7.7c3.5,0,5.1-2.2,5.1-7.9c0-4.9-1.4-7.4-4.9-7.4
		C209.2,32.2,207.4,34.1,207.4,39.9z"/>
	<path class="st0" d="M253.4,39.4c0,8.6-5,13.9-12.8,13.9c-7.8,0-12.2-4.1-12.2-13.2c0-8.6,5.1-13.7,13-13.7
		C249.1,26.4,253.4,31.1,253.4,39.4z M235.8,39.9c0,5.3,1.5,7.7,5,7.7c3.5,0,5.1-2.2,5.1-7.9c0-4.9-1.4-7.4-4.9-7.4
		C237.6,32.2,235.8,34.1,235.8,39.9z"/>
	<path class="st0" d="M271.5,49v3.8h-15.4V49l3.8-1.2v-27l-3.8-1V16l11.1-0.4v32.2L271.5,49z"/>
	<path class="st0" d="M278.2,47.6c0,0,1.7,0.5,4,0.5c2.6,0,3.9-0.8,3.9-2.4c0-3.9-12.8-2.5-12.8-11c0-6,4.8-8.2,9.9-8.2
		c4.3,0,8.9,1.4,8.9,1.4l-0.2,7.2h-4.1l-0.7-2.9c0,0-1.4-0.5-3.3-0.5c-2.1,0-3.3,0.9-3.3,2.4c0,3.9,12.8,2.2,12.8,10.5
		c0,5.5-4.5,8.6-11,8.6c-4.6,0-8.8-1.1-8.8-1.1v-7.8h4.3L278.2,47.6z"/>
</g>
<polygon class="st1" points="36.7,28 33.5,17.8 33.5,9.2 37.5,7.8 37.5,1.5 7,1.5 7,9.2 10.2,9.5 9.3,24.4 "/>
<path class="st2" d="M1.7,53.2c0,3.3,2.7,6,6,6h28.6c3.3,0,6-2.7,6-6c0-0.5-0.1-1-0.2-1.5l-6.6-26.4l0,0c-13.5,0-13.5-6.8-25.4-6.8
	L1.9,51.7C1.8,52.2,1.7,52.7,1.7,53.2z"/>
<path class="st0" d="M43.8,51.3l-8.2-32.9v-8.3h3.4V0H23.7h-3.4H5.1v10.2h3.4v8.3L0.2,51.3C0.1,51.9,0,52.6,0,53.2
	c0,4.3,3.5,7.7,7.7,7.7h28.6c4.3,0,7.7-3.5,7.7-7.7C44,52.6,43.9,51.9,43.8,51.3z M36.3,57.5H7.7c-2.4,0-4.3-1.9-4.3-4.3
	c0-0.4,0-0.7,0.1-1.1L11.8,19l0-8.9h13.5V6.8H8.5V3.4h27.1v3.4h-6.8v3.4h3.4v8.5l8.3,33.5c0.1,0.3,0.1,0.7,0.1,1.1
	C40.6,55.6,38.7,57.5,36.3,57.5z"/>
<circle class="st1" cx="22.3" cy="21.3" r="5.6"/>
<circle class="st1" cx="16.7" cy="31.8" r="3.6"/>
<circle class="st1" cx="23.6" cy="37.8" r="2.4"/>
</svg>
