<?xml version="1.0" encoding="utf-8"?>
<!-- Generator: Adobe Illustrator 21.1.0, SVG Export Plug-In . SVG Version: 6.00 Build 0)  -->
<svg version="1.1" id="Layer_1" xmlns="http://www.w3.org/2000/svg" xmlns:xlink="http://www.w3.org/1999/xlink" x="0px" y="0px"
	 viewBox="0 0 512 512" style="enable-background:new 0 0 512 512;" xml:space="preserve">
<style type="text/css">
	.st0{fill:#FFFFFF;}
	.st1{fill:#999999;}
</style>
<path d="M473.6,512H38.4C17.2,512,0,494.8,0,473.6V38.4C0,17.2,17.2,0,38.4,0h435.2C494.8,0,512,17.2,512,38.4v435.2
	C512,494.8,494.8,512,473.6,512z M38.4,17.1c-11.8,0-21.3,9.6-21.3,21.3v435.2c0,11.8,9.6,21.3,21.3,21.3h435.2
	c11.8,0,21.3-9.6,21.3-21.3V38.4c0-11.8-9.6-21.3-21.3-21.3H38.4z"/>
<path d="M76.8,85.3H42.7c-4.7,0-8.5-3.8-8.5-8.5V42.7c0-4.7,3.8-8.5,8.5-8.5h34.1c4.7,0,8.5,3.8,8.5,8.5v34.1
	C85.3,81.5,81.5,85.3,76.8,85.3z M51.2,68.3h17.1V51.2H51.2V68.3z"/>
<path d="M145.1,85.3h-34.1c-4.7,0-8.5-3.8-8.5-8.5V42.7c0-4.7,3.8-8.5,8.5-8.5h34.1c4.7,0,8.5,3.8,8.5,8.5v34.1
	C153.6,81.5,149.8,85.3,145.1,85.3z M119.5,68.3h17.1V51.2h-17.1V68.3z"/>
<path d="M213.3,85.3h-34.1c-4.7,0-8.5-3.8-8.5-8.5V42.7c0-4.7,3.8-8.5,8.5-8.5h34.1c4.7,0,8.5,3.8,8.5,8.5v34.1
	C221.9,81.5,218,85.3,213.3,85.3z M187.7,68.3h17.1V51.2h-17.1V68.3z"/>
<path d="M503.5,119.5H8.5c-4.7,0-8.5-3.8-8.5-8.5V38.4C0,17.2,17.2,0,38.4,0h435.2C494.8,0,512,17.2,512,38.4v72.5
	C512,115.6,508.2,119.5,503.5,119.5z M17.1,102.4h477.9v-64c0-11.8-9.6-21.3-21.3-21.3H38.4c-11.8,0-21.3,9.6-21.3,21.3V102.4z"/>
<g>
	<polygon class="st0" points="316.1,292.6 302.4,248.9 302.4,212 319.6,206 319.6,179 188.9,179 188.9,212 202.6,213.3 198.7,277.1 
			"/>
	<path class="st1" d="M166.1,400.6c0,14.1,11.6,25.7,25.7,25.7h122.6c14.1,0,25.7-11.6,25.7-25.7c0-2.1-0.4-4.3-0.9-6.4L311,281l0,0
		c-57.9,0-57.9-29.1-108.9-29.1L167,394.1C166.6,396.3,166.1,398.4,166.1,400.6z"/>
	<path d="M346.6,392.4l-35.1-141v-35.6H326v-43.3h-65.6h-14.6h-65.1v43.7h14.6v35.6l-35.6,140.6c-0.4,2.6-0.9,5.6-0.9,8.1
		c0,18.4,15,33,33,33h122.6c18.4,0,33-15,33-33C347.4,398,347,395,346.6,392.4z M314.4,419H191.9c-10.3,0-18.4-8.1-18.4-18.4
		c0-1.7,0-3,0.4-4.7L209.4,254v-38.1h57.9v-14.1h-72v-14.6h116.1v14.6h-29.1v14.6h14.6v36.4l35.6,143.6c0.4,1.3,0.4,3,0.4,4.7
		C332.9,410.9,324.7,419,314.4,419z"/>
	<circle class="st0" cx="254.4" cy="263.9" r="24"/>
	<circle class="st0" cx="230.4" cy="308.9" r="15.4"/>
	<circle class="st0" cx="260" cy="334.6" r="10.3"/>
</g>
<g>
	<path d="M148.5,410.6c1.5,1.5,3.4,2.3,5.5,2.3s4-0.8,5.5-2.3L256,314l96.6,96.6c1.5,1.5,3.4,2.3,5.5,2.3c1.9,0,4-0.8,5.5-2.3
		c3-3,3-7.9,0-11L267,303.1l96.6-96.6c3-3,3-7.9,0-11c-3-3-7.9-3-11,0L256,292.1l-96.6-96.6c-3-3-7.9-3-11,0c-3,3-3,7.9,0,11
		l96.6,96.6l-96.6,96.6C145.4,402.7,145.4,407.6,148.5,410.6z"/>
</g>
</svg>
